<mxfile host="app.diagrams.net" modified="2020-09-04T05:59:59.054Z" agent="5.0 (Macintosh; Intel Mac OS X 10_13_6) AppleWebKit/537.36 (KHTML, like Gecko) Chrome/84.0.4147.135 Safari/537.36" etag="K-gxCPycJjugXSIABVzg" version="13.6.6" type="github">
  <diagram id="3yMZNlwuXq5JaMPDRwAW" name="第 1 页">
    <mxGraphModel dx="1426" dy="789" grid="1" gridSize="10" guides="1" tooltips="1" connect="1" arrows="1" fold="1" page="1" pageScale="1" pageWidth="827" pageHeight="1169" math="0" shadow="0">
      <root>
        <mxCell id="0" />
        <mxCell id="1" parent="0" />
        <mxCell id="VIQiMFjiJrlT0es23Ad6-5" value="" style="edgeStyle=orthogonalEdgeStyle;rounded=0;orthogonalLoop=1;jettySize=auto;html=1;" parent="1" source="VIQiMFjiJrlT0es23Ad6-1" target="VIQiMFjiJrlT0es23Ad6-4" edge="1">
          <mxGeometry relative="1" as="geometry" />
        </mxCell>
        <mxCell id="VIQiMFjiJrlT0es23Ad6-1" value="前端导入" style="rounded=0;whiteSpace=wrap;html=1;" parent="1" vertex="1">
          <mxGeometry x="80" y="80" width="120" height="60" as="geometry" />
        </mxCell>
        <mxCell id="VIQiMFjiJrlT0es23Ad6-2" value="mysql入库" style="rounded=0;whiteSpace=wrap;html=1;" parent="1" vertex="1">
          <mxGeometry x="250" y="590" width="120" height="60" as="geometry" />
        </mxCell>
        <mxCell id="VIQiMFjiJrlT0es23Ad6-3" value="数据读取" style="rounded=0;whiteSpace=wrap;html=1;" parent="1" vertex="1">
          <mxGeometry x="250" y="690" width="120" height="60" as="geometry" />
        </mxCell>
        <mxCell id="VIQiMFjiJrlT0es23Ad6-4" value="机构id-用户id-表名-字段名" style="whiteSpace=wrap;html=1;rounded=0;" parent="1" vertex="1">
          <mxGeometry x="250" y="80" width="120" height="60" as="geometry" />
        </mxCell>
        <mxCell id="VIQiMFjiJrlT0es23Ad6-6" value="自动查询数据字段类型，入库" style="rounded=0;whiteSpace=wrap;html=1;" parent="1" vertex="1">
          <mxGeometry x="250" y="180" width="120" height="60" as="geometry" />
        </mxCell>
        <mxCell id="VIQiMFjiJrlT0es23Ad6-7" value="导入的时候，查询数据库中已经定义的字段类型" style="rounded=0;whiteSpace=wrap;html=1;" parent="1" vertex="1">
          <mxGeometry x="250" y="280" width="120" height="60" as="geometry" />
        </mxCell>
        <mxCell id="VIQiMFjiJrlT0es23Ad6-8" value="调用默认的字段类型" style="rounded=0;whiteSpace=wrap;html=1;" parent="1" vertex="1">
          <mxGeometry x="250" y="380" width="120" height="60" as="geometry" />
        </mxCell>
        <mxCell id="VIQiMFjiJrlT0es23Ad6-11" value="添加默认数据处理方法，如果不存在，就跳过，存在，进行调用" style="rounded=0;whiteSpace=wrap;html=1;" parent="1" vertex="1">
          <mxGeometry x="250" y="490" width="120" height="60" as="geometry" />
        </mxCell>
      </root>
    </mxGraphModel>
  </diagram>
</mxfile>
